<svg enable-background="new 0 0 170.1 55.7" height="55.7" viewBox="0 0 170.1 55.7" width="170.1" xmlns="http://www.w3.org/2000/svg"><g fill="#fff"><path d="m10.4 39.3h-2.2l1.3 1.4v3.9c-.7-1.2-1.8-1.9-3.1-1.9-2.2 0-3.6 1.8-3.6 4.7s1.4 4.7 3.6 4.7c1.4 0 2.6-.8 3.2-2.1v1.9h1.8l-1-1.1zm-.9 9.8c-.4 1.2-1.5 2-2.8 2-1.8 0-2.9-1.5-2.9-3.9s1.1-3.8 2.9-3.8c1.3 0 2.4.8 2.8 2z"/><path d="m14.4 42.9h-2.2l1.3 1.4v6.1l-.7 1.4h2.6l-1-1.1z"/><path d="m14.7 40.2c0-.4-.3-.7-.7-.7s-.7.3-.7.7.3.7.7.7.7-.3.7-.7"/><path d="m21.4 50.5-2.1-.2c-.8-.1-1.2-.3-1.2-.7s.6-.7 1.6-.7c2.2 0 3.6-1.2 3.6-3.2 0-1.2-.5-2.2-1.8-2.8-.7-.3-1-.8-1-1.3 0-.6.4-.9 1.1-.9.4 0 .6.1 1 .1s.6-.2.6-.5c0-.4-.4-.6-1.2-.6-1.4 0-2.1.5-2.1 1.6 0 .6.2 1 .8 1.3-.2 0-.3 0-.6 0-2 0-3.3 1.2-3.3 3.1 0 1.4.7 2.4 1.9 2.9-.9.1-1.4.6-1.4 1.3 0 .6.3.9.8 1.2-1.2.2-1.9 1.1-1.9 2.2 0 1.4 1.3 2.3 3.7 2.3 2.6 0 4.1-1 4.1-2.7.1-1.4-.8-2.2-2.6-2.4m-3.6-4.8c0-1.5.9-2.5 2.4-2.5 1.4 0 2.3 1 2.3 2.5 0 1.6-.9 2.6-2.3 2.6-1.5 0-2.4-1.1-2.4-2.6m2.2 9.2c-1.9 0-2.8-.6-2.8-1.8 0-1 .6-1.6 1.9-1.9l2.3.2c1.3.1 1.9.6 1.9 1.5 0 1.3-1.3 2-3.3 2"/><path d="m26.8 42.9h-2.2l1.2 1.4v6.1l-.6 1.4h2.5l-.9-1.1z"/><path d="m27 40.2c0-.4-.3-.7-.7-.7s-.7.3-.7.7.3.7.7.7.7-.3.7-.7"/><path d="m32.4 51.3c-.9 0-1.3-.6-1.3-1.8v-5.9h2.2v-.7h-2.2v-2.8h-.6l-.4 2.8h-1.8v.7h1.8v6.2c0 1.3.7 2.1 1.9 2.1.8 0 1.4-.4 1.7-1.1l-.1-.1c-.3.5-.7.6-1.2.6"/><path d="m41.5 51c-.3 0-.5-.3-.5-.8v-4.1c0-2.1-1.2-3.4-3.2-3.4-1.7 0-3 1-3 2.3 0 .5.2.8.5.8s.4-.3.5-.8c0-1.2.7-1.8 2-1.8 1.6 0 2.4 1 2.4 2.9v.8c-1.6 0-2.9.2-3.8.5-1.1.4-1.7 1.2-1.7 2.2 0 1.5 1.1 2.4 2.9 2.4 1.3 0 2.2-.5 2.7-1.4 0 .7.4 1.2 1 1.2.4 0 .8-.3.9-.8l-.1-.1c-.4.1-.5.1-.6.1m-1.5-1c-.5.9-1.3 1.4-2.4 1.4-1.3 0-2.2-.8-2.2-1.9 0-.8.3-1.3 1.1-1.6.7-.3 2.2-.6 3.5-.6z"/><path d="m44.8 39.3h-2.2l1.2 1.3v9.8l-.6 1.4h2.5l-.9-1.1z"/><path d="m56.9 51c-.3 0-.5-.3-.5-.8v-4.1c0-2.1-1.2-3.4-3.2-3.4-1.7 0-3 1-3 2.3 0 .5.2.8.5.8s.4-.3.5-.8c0-1.2.7-1.8 2-1.8 1.6 0 2.4 1 2.4 2.9v.8c-1.6 0-2.9.2-3.8.5-1.1.4-1.7 1.2-1.7 2.2 0 1.5 1.1 2.4 2.9 2.4 1.3 0 2.2-.5 2.7-1.4 0 .7.4 1.2 1 1.2.4 0 .8-.3.9-.8l-.1-.1c-.3.1-.4.1-.6.1m-1.4-1c-.5.9-1.3 1.4-2.4 1.4-1.3 0-2.2-.8-2.2-1.9 0-.8.4-1.3 1.1-1.6s2.2-.6 3.5-.6z"/><path d="m63.2 50.5-2.1-.2c-.8-.1-1.2-.3-1.2-.7s.6-.7 1.6-.7c2.2 0 3.6-1.2 3.6-3.2 0-1.2-.5-2.2-1.8-2.8-.7-.3-1.1-.8-1.1-1.3 0-.6.4-.9 1.1-.9.4 0 .6.1 1 .1s.6-.2.6-.5c0-.4-.4-.6-1.2-.6-1.4 0-2.1.5-2.1 1.6 0 .6.2 1 .8 1.3-.2 0-.3 0-.6 0-2 0-3.3 1.2-3.3 3.1 0 1.4.7 2.4 1.9 2.9-.9.1-1.4.6-1.4 1.3 0 .6.3.9.9 1.2-1.2.2-1.9 1.1-1.9 2.2 0 1.4 1.3 2.3 3.7 2.3 2.6 0 4.1-1 4.1-2.7.1-1.4-.8-2.2-2.6-2.4m-3.6-4.8c0-1.5.9-2.5 2.4-2.5 1.4 0 2.3 1 2.3 2.5 0 1.6-.9 2.6-2.3 2.6s-2.4-1.1-2.4-2.6m2.2 9.2c-1.9 0-2.8-.6-2.8-1.8 0-1 .6-1.6 1.9-1.9l2.3.2c1.3.1 1.9.6 1.9 1.5 0 1.3-1.3 2-3.3 2"/><path d="m71.1 51.3c-2.2 0-3.5-1.4-3.5-4h6.6c0-3.1-1.2-4.7-3.4-4.7-2.5 0-4.1 2-4.1 4.8s1.6 4.5 4.1 4.5c1.7 0 2.9-.8 3.7-2.2l-.1-.1c-1.2 1.3-2.1 1.7-3.3 1.7m-.4-8c1.7 0 2.6 1.2 2.6 3.5h-5.6c.1-2.2 1.2-3.5 3-3.5"/><path d="m83.4 46.2c0-2.3-.9-3.6-2.7-3.6-1.5 0-2.7.9-3.4 2.4v-2.1h-2.1l1.3 1.4v6.1l-.7 1.4h2.6l-1-1.1v-4.7c.5-1.6 1.7-2.7 3.1-2.7 1.3 0 2 .9 2 2.8v4.2l-.7 1.4h2.6l-1-1.1z"/><path d="m89.7 51.3c-2.1 0-3.4-1.4-3.4-3.9s1.3-4.1 3.4-4.1c1.2 0 1.9.6 2 1.8.1.6.2.8.6.8s.6-.2.6-.7c0-1.4-1.4-2.5-3.2-2.5-2.5 0-4.3 2.1-4.3 5 0 2.7 1.7 4.4 4.2 4.4 1.7 0 2.9-.7 3.8-2.2l-.1-.1c-1.1 1-2.3 1.5-3.6 1.5"/><path d="m99.8 42.9 1 1.2-2.7 6.4-2.6-6.3.6-1.2h-2.8l1.2 1.2 3.1 7.3c.4.4.6.9.6 1.4 0 1.1-.8 1.8-1.9 1.8-.4 0-.8-.1-1.1-.1-.4 0-.7.2-.7.5 0 .5.4.7 1.2.7 1.8 0 3-1.2 3-2.8 0-.5-.1-.9-.4-1.5l3.6-8.6z"/><path d="m101.5 9.7h-10.2l2.4 3.6-9.2 8.1v-21.4h-10.4l4.3 5v23.2l-2.2 4.8h11.4l-3.1-3.6v-5l2.1-1.9 5.4 6.8-.8 3.7h11.2l-11.3-14.2z"/><path d="m141.1 29.4c-1.2 0-1.8-.8-1.8-2.5v-9.1c0-5.8-3.6-9-10.2-9-5.8 0-9.9 2.5-9.9 6.3 0 1.8 1.1 3 2.8 3s2.7-1.2 2.7-3.2c.1-2.5 1.4-3.8 3.9-3.8 3.1 0 4.7 2.1 4.7 6.7v2.1c-3.1 0-6.1.3-8.2 1-4.2 1.1-6.5 3.2-6.5 6.5 0 3.9 3 6.3 7.8 6.3 3.4 0 6.1-1.2 7.4-3.3.6 1.7 2.1 2.9 4.3 2.9 2.4 0 3.9-1.2 4.3-3.5l-.2-.2c-.4-.2-.7-.2-1.1-.2m-8-2.1c-.6 2-2.2 3.2-4.3 3.2-2.5 0-4.1-1.6-4.1-4 0-1.8.8-3 2.5-3.8 1.4-.6 3.8-1 6-1.1v5.7z"/><path d="m56.9 20.7c-4.2 1.1-6.5 3.2-6.5 6.5 0 3.9 3 6.3 7.8 6.3 3.4 0 6.1-1.2 7.4-3.3.6 1.7 2.1 2.9 4.3 2.9 2.4 0 3.9-1.2 4.3-3.5l-.2-.4c-.2.1-.6.2-.9.2-1.2 0-1.8-.8-1.8-2.5v-9.1c0-5.8-3.6-9-10.2-9-5.8 0-9.9 2.5-9.9 6.3 0 1.8 1.1 3 2.8 3s2.7-1.2 2.7-3.2c.1-2.5 1.4-3.8 3.9-3.8 3.1 0 4.7 2.1 4.7 6.7v2.1c-3.3-.2-6.3.2-8.4.8m8.2 6.6c-.6 2-2.2 3.2-4.3 3.2-2.5 0-4.1-1.6-4.1-4 0-1.8.8-3 2.5-3.8 1.4-.6 3.8-1 6-1.1v5.7z"/><path d="m160.3 8.8c-3.4 0-6.2 1.7-7.8 4.5v-13.3h-9.9l3.7 4.3v28.7h5.1l.7-4.7c1.5 3.2 4.4 5.2 8.1 5.2 5.9 0 9.8-4.9 9.8-12.4.1-7.4-3.8-12.3-9.7-12.3m-2.4 20.6c-2.4 0-4.3-1.4-5.4-3.8v-9c1-2.4 2.9-3.8 5.4-3.8 3.6 0 5.7 3.1 5.7 8.3.1 5.2-2.1 8.3-5.7 8.3"/><path d="m22.3 12.8c0-2-1.5-3.3-3.8-3.3-3.6 0-6.4 3-7.6 7.9v-7.7s-5.7-.1-7.6.1-3 1.1-3.2 2.5c-.2 1.7 1 2.9 3.1 3.2.8.1 1.6 0 2.2-.3v13.1l-2.2 4.7h11.5l-3.3-4v-8.3c.7-3.5 2-5.4 3.8-5.8 1.4-.2 2.2 1 3.8 1 1.9.1 3.3-1.2 3.3-3.1m-17 1.4c-.3.1-.9.2-1.5.1-.8-.2-1.7-1-1.6-1.9.1-.7.7-1.2 1.2-1.4.6-.2 1.6-.1 1.8-.1v3.3z"/><path d="m113 0s-6.3-.1-8.2.1-3 1.1-3.2 2.5c-.2 1.7 1 2.9 3.1 3.2.8.1 1.5 0 2.2-.3v22.7.1l-2.1 4.6h11.5l-3.3-3.9zm-6.2 4.5c-.3.1-.9.2-1.5.1-.8-.2-1.7-1-1.6-1.9.1-.7.7-1.2 1.2-1.4.6-.2 1.6-.1 1.8-.1v3.3z"/><path d="m35.1 29.3c-.4-.2-.8-.3-1.2-.5 0 0-.1 0-.1-.1-.4-.2-.7-.5-1.1-.8-.1-.1-.2-.2-.3-.3-.2-.2-.4-.5-.6-.7-.1-.2-.3-.4-.4-.6s-.2-.4-.3-.6c-.1-.3-.3-.5-.4-.8-.1-.1-.1-.3-.1-.4-.3-.9-.5-1.8-.7-3h16.4c.3-7.9-3.6-12.7-10.5-12.7-7.3 0-12.3 5.1-12.3 12.6 0 7.3 4.7 12 12.2 12 5.2 0 9.1-2.2 11.4-6.5l-.4-.4c-3.7 2.6-8.2 3.9-11.6 2.8m.5-17.8c3.5 0 5.2 2.8 5.2 7.8h-11.1c.2-4.8 2.4-7.8 5.9-7.8"/></g></svg>